<svg xmlns="http://www.w3.org/2000/svg" version="1.1" xmlns:xlink="http://www.w3.org/1999/xlink" width="50" height="50" x="0" y="0" viewBox="0 0 512 512" style="enable-background:new 0 0 512 512" xml:space="preserve" class=""><g><path d="M256 128a128 128 0 1 0 128 128 128.146 128.146 0 0 0-128-128Zm0 240a112 112 0 1 1 112-112 112.127 112.127 0 0 1-112 112Z" fill="#000000" opacity="1" data-original="#000000" class=""></path><path d="M488 40h-16a72.081 72.081 0 0 0-72 72v17a191.967 191.967 0 0 0-273.967-14.3l-4.279-67.21a8 8 0 0 0-15.967 1.018l5.08 79.789c-3.685 2.593-14.16 6.488-30.867 7.469V48a8 8 0 0 0-16 0v87.765c-15.753-.942-26.747-4.529-30.866-7.493l5.079-79.763a8 8 0 0 0-15.967-1.018l-6.181 97.062A37.263 37.263 0 0 0 48 183.628V264a8 8 0 0 0-8 8v152a32 32 0 0 0 64 0v-50.722a192.084 192.084 0 0 0 328-40.415V424a32 32 0 0 0 64 0V48a8 8 0 0 0-8-8ZM88 424a16 16 0 0 1-32 0V280h32ZM64 264v-80h16v80Zm26.739-96H53.261a21.256 21.256 0 0 1-21.226-22.416C41.005 149.274 54.2 152 72 152c14.619 0 29.3-2.045 39.963-6.378A21.25 21.25 0 0 1 90.739 168ZM375.28 385.418A176.008 176.008 0 0 1 104 344.732V272a8 8 0 0 0-8-8v-80.372a37.261 37.261 0 0 0 31.932-39.114l-.551-8.641A175.973 175.973 0 0 1 400 154.829V272a8 8 0 0 0 8 8h22.369a175.419 175.419 0 0 1-55.089 105.418ZM480 424a16 16 0 0 1-32 0V280h32Zm0-160h-64V112a56.063 56.063 0 0 1 56-56h8Z" fill="#000000" opacity="1" data-original="#000000" class=""></path></g></svg>