<svg xmlns="http://www.w3.org/2000/svg" version="1.1" xmlns:xlink="http://www.w3.org/1999/xlink" width="50" height="50" x="0" y="0" viewBox="0 0 512 512" style="enable-background:new 0 0 512 512" xml:space="preserve" class=""><g><path d="M114.06 233.186c-43.326 0-78.575 35.248-78.575 78.575 0 43.327 35.249 78.575 78.575 78.575s78.575-35.248 78.575-78.575c0-43.327-35.249-78.575-78.575-78.575zm0 141.942c-34.941 0-63.367-28.427-63.367-63.367s28.426-63.367 63.367-63.367 63.367 28.427 63.367 63.367-28.426 63.367-63.367 63.367zM255.998 288.949c-12.578 0-22.812 10.233-22.812 22.812s10.234 22.812 22.812 22.812 22.812-10.233 22.812-22.812-10.234-22.812-22.812-22.812zm0 30.416c-4.193 0-7.604-3.411-7.604-7.604s3.411-7.604 7.604-7.604 7.604 3.411 7.604 7.604-3.411 7.604-7.604 7.604z" fill="#000000" opacity="1" data-original="#000000"></path><path d="M484.736 237.85a7.751 7.751 0 0 0-.475-.642l-88.534-107.14c-.021-.026-.042-.053-.064-.078l-19.52-23.623c-.056-.067-.104-.138-.161-.205a58.312 58.312 0 0 0-43.942-19.984c-32.028 0-58.099 25.963-58.288 57.947l-.002.092c-.001.086-.007.171-.007.259 0 .077.009.151.012.228.002.078-.003.154.002.232l1.355 22.349h-38.22l1.355-22.349c.005-.078 0-.154.002-.232.003-.076.012-.151.012-.228 0-.086-.006-.171-.007-.259l-.002-.092c-.191-31.984-26.26-57.947-58.288-57.947a58.319 58.319 0 0 0-43.942 19.984c-.071.082-.132.169-.199.253l-19.489 23.58c-.016.019-.03.039-.048.057l-11.047 13.367a7.534 7.534 0 0 0-1.703 5.566 7.572 7.572 0 0 0 2.717 5.14 7.64 7.64 0 0 0 4.846 1.744 7.564 7.564 0 0 0 5.859-2.758l10.167-12.303a63.18 63.18 0 0 1 32.558-9.003c28.907 0 53.936 19.339 61.263 47.158l-4.949 81.666c-18.78-37.287-57.417-62.929-101.938-62.929a113.496 113.496 0 0 0-39.912 7.213l23.435-28.361a7.524 7.524 0 0 0 1.712-5.566 7.583 7.583 0 0 0-2.726-5.14 7.599 7.599 0 0 0-10.707 1.024l-58.125 70.342c-.17.205-.326.418-.472.636C10.274 257.771 0 283.587 0 311.762c0 62.893 51.167 114.06 114.06 114.06 39.464 0 74.307-20.148 94.793-50.695h94.294c20.486 30.547 55.329 50.695 94.793 50.695 62.893 0 114.06-51.167 114.06-114.06 0-28.175-10.274-53.99-27.264-73.912zM114.06 410.614c-54.508 0-98.852-44.345-98.852-98.852 0-54.508 44.345-98.852 98.852-98.852s98.852 44.345 98.852 98.852c.001 54.507-44.344 98.852-98.852 98.852zm217.979-309.228a43.104 43.104 0 0 1 32.35 14.632l1.444 1.747a78.886 78.886 0 0 0-13.516-1.167c-25.556 0-48.661 12.2-63.121 31.702l-.241-3.988c.088-23.684 19.379-42.926 43.084-42.926zm-96.07 81.106h40.064l1.535 25.349h-43.135l1.536-25.349zm-2.459 40.557h44.978l1.536 25.341h-48.05l1.536-25.341zm-73.827-106.451a78.93 78.93 0 0 0-13.512 1.166l1.446-1.75.013-.018a43.102 43.102 0 0 1 32.331-14.611c23.705 0 42.996 19.242 43.085 42.926l-.241 3.988c-14.461-19.501-37.566-31.701-63.122-31.701zM217.44 359.92c6.808-14.556 10.633-30.773 10.677-47.865l2.936-48.457h49.893l2.937 48.457c.044 17.092 3.869 33.309 10.677 47.865h-77.12zm73.614-180.956c7.327-27.819 32.356-47.158 61.263-47.158a63.192 63.192 0 0 1 32.559 9.004l52.969 64.101c-12.427-4.657-25.872-7.21-39.905-7.21-44.52 0-83.156 25.642-101.937 62.929l-4.949-81.666zm106.886 231.65c-54.508 0-98.852-44.345-98.852-98.852 0-54.508 44.345-98.852 98.852-98.852s98.852 44.345 98.852 98.852c0 54.507-44.345 98.852-98.852 98.852z" fill="#000000" opacity="1" data-original="#000000"></path><path d="M397.94 233.186c-43.326 0-78.575 35.248-78.575 78.575 0 43.327 35.249 78.575 78.575 78.575s78.575-35.248 78.575-78.575c0-43.327-35.25-78.575-78.575-78.575zm0 141.942c-34.941 0-63.367-28.427-63.367-63.367s28.426-63.367 63.367-63.367 63.367 28.427 63.367 63.367-28.426 63.367-63.367 63.367z" fill="#000000" opacity="1" data-original="#000000"></path></g></svg>